<svg width="28" height="28" viewBox="0 0 28 28" fill="none" xmlns="http://www.w3.org/2000/svg">
<g clip-path="url(#clip0_26_99)">
<path d="M14 6.10352e-05C6.26795 6.10352e-05 0 6.26801 0 14C0 21.7321 6.26795 28 14 28C21.732 28 28 21.7321 28 14C27.9999 6.26801 21.7319 6.10352e-05 14 6.10352e-05ZM10.2648 20.7684H7.19092V10.8377H10.2648V20.7684ZM8.71319 9.53719C7.7093 9.53719 6.89548 8.71673 6.89548 7.70481C6.89548 6.69278 7.70942 5.87237 8.71319 5.87237C9.71696 5.87237 10.5308 6.69278 10.5308 7.70481C10.5308 8.71679 9.71701 9.53719 8.71319 9.53719ZM21.7839 20.7684H18.725V15.5556C18.725 14.1259 18.1819 13.3278 17.0514 13.3278C15.821 13.3278 15.1783 14.159 15.1783 15.5556V20.7684H12.2301V10.8377H15.1783V12.1752C15.1783 12.1752 16.0651 10.5348 18.1708 10.5348C20.2766 10.5348 21.784 11.8205 21.784 14.4804L21.7839 20.7684Z" fill="url(#paint0_linear_26_99)"/>
</g>
<defs>
<linearGradient id="paint0_linear_26_99" x1="4.10049" y1="4.10055" x2="23.8995" y2="23.8995" gradientUnits="userSpaceOnUse">
<stop stop-color="#2489BE"/>
<stop offset="1" stop-color="#0575B3"/>
</linearGradient>
<clipPath id="clip0_26_99">
<rect width="28" height="28" fill="white"/>
</clipPath>
</defs>
</svg>
