<svg width="28" height="28" viewBox="0 0 28 28" fill="none" xmlns="http://www.w3.org/2000/svg">
<g clip-path="url(#clip0_26_102)">
<path d="M14 28C21.732 28 28 21.732 28 14C28 6.26801 21.732 0 14 0C6.26801 0 0 6.26801 0 14C0 21.732 6.26801 28 14 28Z" fill="#FF0000"/>
<path d="M15.9416 14.0055L12.0584 16.2584V11.7416L15.9416 14.0055Z" fill="url(#paint0_linear_26_102)"/>
<path d="M27.7329 16.73C27.1928 19.4406 25.8631 21.9309 23.9112 23.8877C21.9594 25.8445 19.4724 27.1804 16.7632 27.7273L7.71842 18.6826C8.20623 19.0629 8.80753 19.2685 9.42605 19.2665H18.5887C19.3269 19.2646 20.0342 18.9698 20.5554 18.447C21.0765 17.9241 21.3689 17.2158 21.3684 16.4776V11.5223C21.3706 10.7969 21.089 10.0994 20.5837 9.57892L27.7329 16.73Z" fill="url(#paint1_linear_26_102)"/>
<path d="M18.5813 8.73376H9.41869C9.05252 8.73376 8.68995 8.80592 8.35168 8.9461C8.01341 9.08628 7.70608 9.29174 7.44725 9.55074C7.18842 9.80974 6.98316 10.1172 6.84321 10.4556C6.70325 10.7939 6.63134 11.1565 6.63158 11.5227V16.478C6.63134 16.8441 6.70325 17.2068 6.84321 17.5451C6.98316 17.8835 7.18842 18.1909 7.44725 18.4499C7.70608 18.7089 8.01341 18.9144 8.35168 19.0546C8.68995 19.1948 9.05252 19.2669 9.41869 19.2669H18.5813C18.9475 19.2669 19.3101 19.1948 19.6483 19.0546C19.9866 18.9144 20.2939 18.7089 20.5528 18.4499C20.8116 18.1909 21.0168 17.8835 21.1568 17.5451C21.2968 17.2068 21.3687 16.8441 21.3684 16.478V11.5227C21.3687 11.1565 21.2968 10.7939 21.1568 10.4556C21.0168 10.1172 20.8116 9.80974 20.5528 9.55074C20.2939 9.29174 19.9866 9.08628 19.6483 8.9461C19.3101 8.80592 18.9475 8.73376 18.5813 8.73376ZM12.0584 16.2588V11.7419L15.9416 14.0003L12.0584 16.2588Z" fill="white"/>
</g>
<defs>
<linearGradient id="paint0_linear_26_102" x1="11.3345" y1="12.4655" x2="14.4071" y2="15.54" gradientUnits="userSpaceOnUse">
<stop stop-color="#B71C1C"/>
<stop offset="1" stop-color="#B71C1C" stop-opacity="0"/>
</linearGradient>
<linearGradient id="paint1_linear_26_102" x1="13.2042" y1="13.1894" x2="23.9068" y2="23.8902" gradientUnits="userSpaceOnUse">
<stop stop-color="#B71C1C"/>
<stop offset="1" stop-color="#B71C1C" stop-opacity="0"/>
</linearGradient>
<clipPath id="clip0_26_102">
<rect width="28" height="28" fill="white"/>
</clipPath>
</defs>
</svg>
